<?xml version="1.0" encoding="utf-8"?>
<!-- Generator: Adobe Illustrator 15.0.0, SVG Export Plug-In . SVG Version: 6.00 Build 0)  -->
<!DOCTYPE svg PUBLIC "-//W3C//DTD SVG 1.1//EN" "http://www.w3.org/Graphics/SVG/1.1/DTD/svg11.dtd">
<svg version="1.1"  xmlns="http://www.w3.org/2000/svg" xmlns:xlink="http://www.w3.org/1999/xlink" x="0px" y="0px"
	 width="48px" height="48px" viewBox="0 0 48 48" enable-background="new 0 0 48 48" xml:space="preserve">
<g>
	<path fill="#FFCC80" d="M33,18H21.903H21v-4c0-1.106-1.097-2.989-3.097-2.989S15,13,15,14s0,7,0,7s-3.61,2.301-5,4
		c-1.235,1.392-1.391,3.141,0,5l2.692,3.846C15.626,36.781,18.586,39,22.756,39h6.879c5.1,0,9.365-4.056,9.365-9.154
		c0,0,0-3.83,0-9.846L33,18z"/>
	<path fill="#FFCC80" d="M21,19.086C21,20.689,22.35,22,24,22c1.651,0,3-1.311,3-2.914v-7.174C27,10.31,25.651,9,24,9
		c-1.65,0-3,1.31-3,2.912V19.086z"/>
	<path fill="#FFCC80" d="M27,21.086C27,22.689,28.35,24,30,24c1.651,0,3-1.311,3-2.914v-7.174C33,12.31,31.651,11,30,11
		c-1.65,0-3,1.31-3,2.912V21.086z"/>
	<path fill="#FFCC80" d="M33,24.086C33,25.689,34.35,27,36,27c1.651,0,3-1.311,3-2.914v-7.174C39,15.31,37.651,14,36,14
		c-1.65,0-3,1.31-3,2.912V24.086z"/>
</g>
<g>
	<path fill="#F2A25A" d="M15,30v-9c0,0-1.512,0.965-2.955,2.105L15,30z"/>
	<g>
		<path fill="#F2A25A" d="M21,12v6c0,0.552,0.447,1,1,1s1-0.448,1-1L21,12z"/>
	</g>
	<g>
		<path fill="#F2A25A" d="M27,14v5c0,0.552,0.447,1,1,1s1-0.448,1-1L27,14z"/>
	</g>
	<g>
		<path fill="#F2A25A" d="M33,16v4c0,0.552,0.447,1,1,1s1-0.448,1-1L33,16z"/>
	</g>
</g>
</svg>
